<svg xmlns="http://www.w3.org/2000/svg" xmlns:xlink="http://www.w3.org/1999/xlink"><defs><clipPath id="a"><path fill="#fff" transform="translate(.5)" d="M0 0h29v31H0z"/></clipPath><clipPath id="a"><path fill="#fff" transform="translate(.5)" d="M0 0h30v32H0z"/></clipPath></defs><symbol id="icon-dilution"><g fill="none"><g clip-path="url(#a)" fill="#fff"><path d="M21.276 18.473c-1.706 0-3.088 1.479-3.088 3.301 0 1.824 1.383 3.302 3.088 3.302 1.706 0 3.088-1.478 3.088-3.302 0-1.823-1.383-3.3-3.088-3.3Zm0 5.013c-.884 0-1.6-.766-1.6-1.71 0-.947.716-1.713 1.6-1.713.884 0 1.602.766 1.602 1.712 0 .945-.718 1.711-1.602 1.711ZM12.107-.01c-1.76 0-3.187 1.525-3.187 3.407 0 1.882 1.426 3.407 3.187 3.407 1.76 0 3.187-1.524 3.187-3.407S13.867-.01 12.107-.01Zm0 5.476c-1.07 0-1.936-.926-1.936-2.07 0-1.142.866-2.069 1.935-2.069 1.07 0 1.936.927 1.936 2.07 0 1.143-.866 2.069-1.936 2.069ZM8.727 17.61c-1.294 0-2.341 1.12-2.341 2.503s1.047 2.503 2.34 2.503c1.295 0 2.342-1.12 2.342-2.503 0-1.382-1.047-2.503-2.341-2.503ZM8.5 19.5c-.459 0 1.158 1.104 1.158.613 0-.49-1.617.387-1.158.387.459 0 1.057-.877 1.057-.388 0 .49-.598-.612-1.057-.612ZM19 9.763s3.04-.839 6.178 1.494c.907.76 1.765 1.336 1.152 2.122-.343.34-.637.657-1.716-.524-1.054-.76-2.72-1.898-5.614-1.442-1.128.237-1.961.551-3.556 2.15-1.593 1.598-3.972 2.725-6.497 2.489-2.525-.236-3.849-1.258-5.246-2.542-.294-.42-.294-.865-.123-1.127.171-.262.833-.524 1.201-.132.368.394 2.109 1.966 3.825 2.07 1.716.105 3.433.21 5.737-1.965 2.306-2.174 3.458-2.331 4.66-2.593Z"/><mask id="b"><path d="M29.146 26.816V8.157c0-.578-.374-.65-.524-.655h-.506c-.493 0-.536.557-.538.739V8.3c.002 3.609.01 18.254-.002 18.54a2.681 2.681 0 0 1-.82 1.887c-.809.695-1.618.603-1.618.603s-20.177 0-20.655-.026c-.38-.066-1.042-.21-1.606-1.01-.564-.798-.453-1.847-.453-1.847V8.315c0-.839-.675-.812-.675-.812h-.307c-.536 0-.585.588-.588.776v18.537c0 1.337.453 2.398 1.548 3.337 1.094.939 2.375.856 2.375.856s19.723 0 20.581-.002c.859-.003 1.986-.417 2.916-1.556.93-1.138.872-2.635.872-2.635Z"/></mask><path d="M29.146 26.816V8.157c0-.578-.374-.65-.524-.655h-.506c-.493 0-.536.557-.538.739V8.3c.002 3.609.01 18.254-.002 18.54a2.681 2.681 0 0 1-.82 1.887c-.809.695-1.618.603-1.618.603s-20.177 0-20.655-.026c-.38-.066-1.042-.21-1.606-1.01-.564-.798-.453-1.847-.453-1.847V8.315c0-.839-.675-.812-.675-.812h-.307c-.536 0-.585.588-.588.776v18.537c0 1.337.453 2.398 1.548 3.337 1.094.939 2.375.856 2.375.856s19.723 0 20.581-.002c.859-.003 1.986-.417 2.916-1.556.93-1.138.872-2.635.872-2.635Z"/><path d="M29.146 26.816h-20v.387l.015.387 19.985-.774Zm-.524-19.314.71-19.987-.355-.013h-.355v20Zm-1.044.739-20-.15v.15h20Zm0 .06h-20v.008l20-.008Zm-.002 18.54-19.985-.758v.013l19.986.745Zm-.82 1.887 13.039 15.165.431-.37.41-.396-13.88-14.399Zm-1.618.603 2.26-19.872-1.127-.128h-1.133v20Zm-20.655-.026-3.395 19.71 1.134.195 1.148.064 1.113-19.97Zm-1.606-1.01-16.344 11.528.004.006 16.34-11.533Zm-.453-1.847 19.89 2.098.11-1.046v-1.052h-20ZM1.749 7.503v20h.388l.388-.015-.776-19.985Zm-.895.776-19.998-.289-.002.145v.144h20Zm1.548 21.874L-10.624 45.33 2.403 30.153Zm2.375.856v-20h-.643l-.64.041 1.283 19.96Zm23.497-1.558 15.49 12.654.005-.008-15.495-12.646Zm20.872-2.635V8.157h-40v18.659h40Zm0-18.659c0-4.97-1.859-11.419-7.618-16.084-4.89-3.96-10.03-4.481-12.196-4.558l-1.42 39.974a19.462 19.462 0 0 1-11.56-4.332c-5.535-4.483-7.206-10.608-7.206-15h40ZM28.622-12.498h-.506v40h.506v-40Zm-.506 0a20.47 20.47 0 0 0-12.283 4.083A20.526 20.526 0 0 0 9.414-.38 21.134 21.134 0 0 0 7.579 8.09l39.999.299c-.006.733-.014 3.914-1.667 7.598a19.474 19.474 0 0 1-6.096 7.61 19.53 19.53 0 0 1-11.699 3.904v-40ZM7.578 8.241V8.292h40V8.24h-40Zm0 .05V8.302h40V8.291h-40Zm0 .018.004 10.511a8367.03 8367.03 0 0 1-.002 7.252c-.002.788-.006.45.01.011L47.563 27.6c.02-.51.018-1.37.018-1.45l.002-1.808v-5.528c0-4.15-.003-8.719-.004-10.52l-40 .016Zm.012 17.787c.05-1.35.384-7.042 5.285-11.767l27.761 28.798c6.396-6.166 6.852-13.536 6.927-15.54L7.59 26.096Zm6.126-12.533a17.513 17.513 0 0 1 7.807-3.843 17.962 17.962 0 0 1 4.628-.362 19.227 19.227 0 0 1 1.172.093l.037.004.019.002c.01.001.019.002-2.241 19.874-2.26 19.872-2.25 19.873-2.241 19.874l.018.003c.013 0 .025.002.038.004a14.8 14.8 0 0 0 .553.053 20.798 20.798 0 0 0 2.275.064 22.044 22.044 0 0 0 3.983-.468 22.487 22.487 0 0 0 10.03-4.968l-26.078-30.33Zm11.422 15.768v-20h-.866a17598.02 17598.02 0 0 1-16.322-.01l-2.357-.007c-1.071-.005-.613-.013.002.022L3.37 49.274c.97.054 7.17.051 11.606.054l6.997.003h3.164v-20ZM7.877 9.595c.432.074 2.526.427 4.938 1.653a17.618 17.618 0 0 1 6.401 5.514L-13.463 39.83c4.995 7.076 11.877 8.725 14.551 9.186l6.789-39.42Zm11.344 7.173c2.348 3.33 2.908 6.51 3.08 7.955a16.586 16.586 0 0 1 .049 3.439 18.522 18.522 0 0 1-.027.29l-.005.047-.002.024-.002.012c0 .005 0 .011-19.89-2.087-19.89-2.098-19.89-2.092-19.891-2.086l-.002.012a19.73 19.73 0 0 0-.036.385 21.677 21.677 0 0 0-.078 1.584c-.011.81.016 1.863.16 3.08.257 2.169 1.043 6.27 3.956 10.4L19.22 16.768Zm3.203 9.68V8.315h-40v18.133h40Zm0-18.133c0-6.89-3.412-14.004-10.265-17.999a20.69 20.69 0 0 0-11.136-2.8H.998c-.012.001-.024.002.751 19.987.776 19.985.763 19.985.751 19.985l-.024.001-.05.002a28.574 28.574 0 0 1-.3.008 19.374 19.374 0 0 1-10.112-2.626 19.387 19.387 0 0 1-7.239-7.434 19.028 19.028 0 0 1-2.351-9.124h40ZM1.748-12.497h-.307v40h.307v-40Zm-.307 0c-4.037 0-8.32 1.191-12.061 3.905a20.562 20.562 0 0 0-6.553 7.946 21.166 21.166 0 0 0-1.972 8.636l39.996.578c-.011.758-.045 3.996-1.784 7.718a19.438 19.438 0 0 1-6.2 7.5 19.477 19.477 0 0 1-11.426 3.717v-40ZM-19.146 8.279V26.816h40V8.279h-40Zm0 18.537c0 7.063 2.92 13.705 8.522 18.514l26.052-30.354c1.294 1.111 2.854 2.871 3.993 5.373a15.716 15.716 0 0 1 1.433 6.467h-40Zm8.523 18.514A23.586 23.586 0 0 0-.143 50.5a23.616 23.616 0 0 0 5.087.51 21.335 21.335 0 0 0 .991-.034l.063-.004.03-.002h.016c.008-.001.016-.002-1.267-19.96C3.494 11.05 3.5 11.05 3.509 11.05l.015-.002.03-.001a429.613 429.613 0 0 1 .185-.01 19.735 19.735 0 0 1 .755-.025c.342-.004.702.002 1.077.021.737.037 1.607.13 2.571.334 1.88.398 4.642 1.34 7.285 3.609l-26.05 30.354Zm15.4-14.32v20H7.872l6.875-.001c5.007 0 10.202 0 10.668-.002l-.113-40H24.22l-2.443.001-7.033.001H4.778v20Zm20.638 19.997c7.104-.02 13.8-3.336 18.348-8.902L12.786 16.799c2.687-3.29 7.129-5.777 12.516-5.792l.113 40Zm18.354-8.91c3.245-3.977 4.434-8.096 4.913-10.529a24.742 24.742 0 0 0 .464-4.58 21.801 21.801 0 0 0-.015-.934c0-.006 0-.013-19.985.762-19.985.774-19.986.767-19.986.761v-.013l-.001-.025a18.379 18.379 0 0 1 .014-1.619c.033-.576.105-1.28.262-2.075.275-1.4 1.028-4.201 3.344-7.039l30.99 25.291Z" mask="url(#b)"/></g></g></symbol><symbol id="icon-gift"><g fill="none"><path d="M54.016 28.713H4.03c-1.754 0-3.182-1.418-3.182-3.16v-9.469c0-1.742 1.428-3.16 3.182-3.16h49.984c1.754 0 3.18 1.418 3.18 3.16v9.469c0 1.742-1.426 3.16-3.18 3.16ZM4.03 15.345a.751.751 0 0 0-.744.74v9.468c0 .407.334.738.744.738h49.984c.41 0 .743-.331.743-.738v-9.469a.75.75 0 0 0-.743-.739H4.03Z" fill="#fff"/><path d="M47.045 61.149H10.999c-3.377 0-6.125-2.73-6.125-6.086V27.502c0-.669.546-1.211 1.219-1.211s1.219.542 1.219 1.21v27.562c0 2.02 1.654 3.664 3.687 3.664h36.046c2.032 0 3.686-1.644 3.686-3.664V27.502c0-.669.546-1.211 1.219-1.211.672 0 1.218.542 1.218 1.21v27.562c0 3.356-2.747 6.086-6.123 6.086Z" fill="#fff"/><path d="M29.023 61.149a1.215 1.215 0 0 1-1.22-1.211V27.502c0-.669.547-1.211 1.22-1.211.672 0 1.218.542 1.218 1.21v32.436c0 .67-.545 1.212-1.218 1.212ZM13.811 15.341c-3.814-2.054-5.238-6.808-3.173-10.6C12.702.952 17.486-.463 21.303 1.587c5.814 3.13 8.953 11.86 9.084 12.23l-2.3.804c-.029-.083-2.961-8.222-7.944-10.904-2.635-1.415-5.937-.438-7.36 2.177-1.426 2.618-.444 5.9 2.19 7.318l-1.162 2.13Z" fill="#fff"/><path d="m44.231 15.341-1.16-2.13a5.376 5.376 0 0 0 2.622-3.207 5.327 5.327 0 0 0-.431-4.109 5.382 5.382 0 0 0-3.226-2.604 5.426 5.426 0 0 0-4.134.426C32.92 6.4 29.987 14.537 29.958 14.62l-2.3-.803c.131-.37 3.27-9.101 9.084-12.23a7.859 7.859 0 0 1 5.99-.617 7.8 7.8 0 0 1 4.674 3.771 7.72 7.72 0 0 1 .623 5.953 7.788 7.788 0 0 1-3.798 4.647ZM51.95 44.931H6.093a1.215 1.215 0 0 1-1.219-1.21c0-.67.546-1.212 1.219-1.212H51.95c.672 0 1.218.543 1.218 1.211 0 .669-.545 1.211-1.218 1.211Z" fill="#fff"/></g></symbol><symbol id="icon-leaf"><g fill="none"><g clip-path="url(#a)"><path d="M28.344 2.767c-.1-.45-.48-.767-.912-.767h-.005c-4.938.033-16.945.916-21.793 8.38-2.518 3.878-2.735 8.913-.644 14.965.016.047.048.079.07.122-.747 1.973-1.037 3.286-1.044 3.323-.11.54.214 1.072.72 1.188a.88.88 0 0 0 .197.022c.433 0 .822-.321.916-.79.02-.102 2.409-10.373 10.854-16.378.431-.306.547-.927.26-1.387-.288-.46-.87-.585-1.3-.277-4.79 3.405-7.739 8.008-9.473 11.656-1.242-4.578-.916-8.377.986-11.305 3.743-5.764 12.622-7.154 17.982-7.448C24.005 5.872 22.745 9.174 22.745 15c0 3.12-.83 5.522-2.465 7.14-2.62 2.591-6.88 2.834-9.993 2.584-.518-.045-.967.371-1.006.922-.04.55.347 1.03.863 1.072.623.051 1.29.082 1.981.082 3.17 0 6.87-.663 9.43-3.194 2.034-2.011 3.065-4.906 3.065-8.605 0-9.099 3.216-11.096 3.232-11.105.39-.209.594-.677.492-1.129Z" fill="#fff"/></g></g></symbol><symbol id="icon-meal"><g fill="none"><path fill-rule="evenodd" clip-rule="evenodd" d="M19.117.076a1 1 0 0 1 1.09.217c.909.908 2.097 2.878 3.059 5.918C24.237 9.28 25 13.508 25 19a1 1 0 0 1-1 1h-3.5v9a1 1 0 1 1-2 0V1a1 1 0 0 1 .617-.924ZM20.5 18h2.491c-.086-4.816-.786-8.512-1.632-11.186-.278-.88-.57-1.643-.859-2.295V18ZM6.5 0a1 1 0 0 1 1 1v28a1 1 0 1 1-2 0V1a1 1 0 0 1 1-1Z" fill="#fff"/><path fill-rule="evenodd" clip-rule="evenodd" d="M2 0a1 1 0 0 1 1 1v5.5c0 .557.192 1.315.7 1.917.48.566 1.314 1.083 2.8 1.083a1 1 0 1 1 0 2c-2.015 0-3.43-.733-4.326-1.792A5.068 5.068 0 0 1 1 6.5V1a1 1 0 0 1 1-1Z" fill="#fff"/><path fill-rule="evenodd" clip-rule="evenodd" d="M11 0a1 1 0 0 0-1 1v5.5a3.07 3.07 0 0 1-.7 1.917C8.82 8.983 7.984 9.5 6.5 9.5a1 1 0 0 0 0 2c2.014 0 3.43-.733 4.326-1.792A5.068 5.068 0 0 0 12 6.5V1a1 1 0 0 0-1-1Z" fill="#fff"/></g></symbol><symbol id="icon-time"><g fill="none"><ellipse cx="21.704" cy="11.33" rx="1.087" ry="1.085" fill="#fff"/><ellipse cx="10.831" cy="11.33" rx="1.087" ry="1.085" fill="#fff"/><ellipse cx="10.831" cy="24.351" rx="1.087" ry="1.085" fill="#fff"/><ellipse cx="16.268" cy="26.521" rx="1.087" ry="1.085" fill="#fff"/><ellipse cx="7.569" cy="17.775" rx="1.087" ry="1.085" fill="#fff"/><ellipse cx="24.966" cy="17.775" rx="1.087" ry="1.085" fill="#fff"/><ellipse cx="21.704" cy="24.351" rx="1.087" ry="1.085" fill="#fff"/><mask id="a" fill="#fff"><path fill-rule="evenodd" clip-rule="evenodd" d="M21.422 29.058a1.058 1.058 0 0 1 1.216.196l1.826 1.875a.682.682 0 0 0 .977-.95l-1.357-1.394c-.426-.438-.361-1.15.098-1.552 2.642-2.314 4.318-5.764 4.318-9.619C28.5 10.648 23.023 5 16.268 5 9.512 5 4.036 10.648 4.036 17.614c0 3.815 1.641 7.234 4.236 9.547.452.403.513 1.11.09 1.544l-1.434 1.473a.682.682 0 1 0 .976.951l1.88-1.93a1.058 1.058 0 0 1 1.226-.191 11.878 11.878 0 0 0 5.258 1.221c1.841 0 3.587-.42 5.154-1.17Zm-5.154-.23c6.005 0 10.873-5.02 10.873-11.213S22.273 6.402 16.268 6.402c-6.005 0-10.873 5.02-10.873 11.212 0 6.193 4.868 11.213 10.873 11.213Zm-.76-11.53V9.94a.781.781 0 1 1 1.563 0v8.183c0 .443-.36.803-.803.803a.76.76 0 0 1-.76-.76V17.298Z"/></mask><path fill-rule="evenodd" clip-rule="evenodd" d="M21.422 29.058a1.058 1.058 0 0 1 1.216.196l1.826 1.875a.682.682 0 0 0 .977-.95l-1.357-1.394c-.426-.438-.361-1.15.098-1.552 2.642-2.314 4.318-5.764 4.318-9.619C28.5 10.648 23.023 5 16.268 5 9.512 5 4.036 10.648 4.036 17.614c0 3.815 1.641 7.234 4.236 9.547.452.403.513 1.11.09 1.544l-1.434 1.473a.682.682 0 1 0 .976.951l1.88-1.93a1.058 1.058 0 0 1 1.226-.191 11.878 11.878 0 0 0 5.258 1.221c1.841 0 3.587-.42 5.154-1.17Zm-5.154-.23c6.005 0 10.873-5.02 10.873-11.213S22.273 6.402 16.268 6.402c-6.005 0-10.873 5.02-10.873 11.212 0 6.193 4.868 11.213 10.873 11.213Zm-.76-11.53V9.94a.781.781 0 1 1 1.563 0v8.183c0 .443-.36.803-.803.803a.76.76 0 0 1-.76-.76V17.298Z" fill="#fff"/><path d="m9.784 29.199 2.865 2.79-2.865-2.79Zm1.226-.191 1.765-3.59-1.765 3.59Zm-3.106 2.121L5.04 28.34l2.865 2.79Zm-.976-.95 2.865 2.79-2.865-2.79Zm17.156-1.394-2.865 2.79 2.865-2.79Zm.098-1.552-2.635-3.009 2.635 3.01Zm-15.91-.072L5.61 30.146l2.662-2.985Zm.09 1.544-2.866-2.79 2.866 2.79Zm17.079 1.473 2.866-2.79-2.866 2.79Zm-.977.951 2.866-2.79-2.866 2.79Zm-1.825-1.875-2.866 2.79 2.866-2.79Zm-1.217-.196-1.73-3.606 1.73 3.606Zm-1.65 2.987L21.6 33.92l5.731-5.582-1.826-1.874-5.731 5.58Zm8.535-4.658-1.357-1.393-5.731 5.582 1.356 1.393 5.732-5.582Zm-1.49 2.855c3.49-3.056 5.683-7.595 5.683-12.628h-8c0 2.677-1.16 5.04-2.953 6.61l5.27 6.018ZM32.5 17.614C32.5 8.556 25.348 1 16.268 1v8c4.431 0 8.232 3.74 8.232 8.614h8ZM16.268 1C7.188 1 .036 8.556.036 17.614h8c0-4.874 3.8-8.614 8.232-8.614V1ZM.036 17.614c0 4.98 2.147 9.477 5.574 12.532l5.324-5.97c-1.762-1.572-2.898-3.913-2.898-6.561h-8Zm5.46 8.3-1.434 1.473 5.731 5.582 1.434-1.473-5.73-5.581Zm5.274 8.006 1.88-1.93-5.732-5.582-1.88 1.93 5.732 5.582Zm-1.525-1.323a15.878 15.878 0 0 0 7.023 1.632v-8a7.879 7.879 0 0 1-3.493-.811l-3.53 7.18Zm7.023 1.632c2.456 0 4.792-.56 6.884-1.565l-3.46-7.212c-1.041.499-2.198.777-3.424.777v8Zm0-1.402c8.33 0 14.873-6.928 14.873-15.212h-8c0 4.1-3.192 7.212-6.873 7.212v8ZM31.14 17.615c0-8.285-6.544-15.213-14.873-15.213v8c3.68 0 6.873 3.112 6.873 7.213h8ZM16.268 2.402c-8.33 0-14.873 6.928-14.873 15.212h8c0-4.1 3.192-7.212 6.873-7.212v-8ZM1.395 17.614c0 8.285 6.544 15.213 14.873 15.213v-8c-3.68 0-6.873-3.112-6.873-7.213h-8Zm11.676-.316v.543h8v-.543h-8Zm0 .543v.282h8v-.282h-8Zm6.437.325v-.325h-8v.325h8Zm0-.325v-.543h-8v.543h8Zm0-.543V13.5h-8v3.798h8Zm0-3.798V9.94h-8v3.56h8Zm-6.437-3.56v3.56h8V9.94h-8Zm0 3.56v3.798h8V13.5h-8Zm3.219-8.34a4.781 4.781 0 0 0-4.782 4.78h8a3.219 3.219 0 0 1-3.218 3.22v-8Zm-3.22 12.963a3.197 3.197 0 0 1 3.198-3.197v8a4.803 4.803 0 0 0 4.803-4.803h-8Zm-.42 13.867a2.943 2.943 0 0 1-3.405.607l3.53-7.179c-1.826-.898-4.227-.683-5.857.99l5.731 5.582Zm-8.588 1.93a4.682 4.682 0 0 0 6.708 0l-5.731-5.582a3.318 3.318 0 0 1 4.754 0L4.062 33.92Zm0-6.533a4.682 4.682 0 0 0 0 6.533l5.731-5.582a3.318 3.318 0 0 1 0 4.63l-5.731-5.58Zm22.888-1.393c1.343 1.38.944 3.305-.133 4.248l-5.27-6.018c-1.995 1.748-2.523 5.098-.328 7.352l5.731-5.582ZM16.29 13.16a3.219 3.219 0 0 1-3.22-3.22h8c0-2.64-2.14-4.78-4.78-4.78v8ZM5.61 30.146c-1.064-.948-1.447-2.862-.114-4.231l5.731 5.581c2.18-2.238 1.675-5.565-.293-7.32l-5.324 5.97Zm22.697 3.774a4.682 4.682 0 0 0 0-6.533l-5.732 5.582a3.318 3.318 0 0 1 0-4.63l5.732 5.58Zm-6.708 0a4.682 4.682 0 0 0 6.708 0l-5.732-5.582a3.318 3.318 0 0 1 4.755 0L21.6 33.92Zm-5.331-18.994a3.24 3.24 0 0 1 3.24 3.24h-8a4.76 4.76 0 0 0 4.76 4.76v-8Zm9.236 11.538c-1.616-1.66-3.992-1.886-5.813-1.012l3.46 7.212a2.943 2.943 0 0 1-3.378-.62l5.731-5.58Z" fill="#fff" mask="url(#a)"/><path fill="#fff" d="M15.5 6V2H17v4z"/><rect x="8.5" y="2" width="15.5" height="1.5" rx=".75" fill="#fff"/></g></symbol></svg>